<svg xmlns="http://www.w3.org/2000/svg" width="22" height="22" viewBox="0 0 22 22" fill="none"><path fill-rule="evenodd" clip-rule="evenodd" d="M9.99588 21.7381C10.8445 21.4354 11.5884 20.8117 12.0683 20.0009L12.3849 19.4659L12.9613 19.9511C13.4897 20.3959 14.1036 20.5963 14.1036 20.3237C14.1036 20.2618 14.0193 20.0534 13.916 19.8606C13.813 19.6677 13.5074 18.3972 13.2367 17.0369C12.9662 15.6769 12.5138 13.9492 12.231 13.1977C11.9484 12.4462 11.7171 11.8058 11.7171 11.7748C11.7171 11.7437 12.3249 11.9738 13.0675 12.286C13.8102 12.5983 15.4434 13.0383 16.6969 13.2636C17.9504 13.4891 19.2729 13.7711 19.6356 13.8905C20.4448 14.1566 20.5258 14.0917 20.167 13.4642C20.0127 13.1941 19.8313 12.8682 19.7639 12.74C19.6965 12.6116 20.0872 12.0743 20.6326 11.5459C22.1197 10.1042 22.3896 8.67668 21.463 7.15202C20.7085 5.91056 18.5941 5.33043 17.2877 6.00649C16.3896 6.47119 16.0923 7.05431 16.0923 8.3501C16.0923 9.35095 16.1649 9.57683 16.6237 10.0023C17.5393 10.8513 18.6778 10.8834 19.4781 10.0825C19.8824 9.67793 20.0268 8.49538 19.672 8.49538C19.5626 8.49538 19.4731 8.67449 19.4731 8.89341C19.4731 9.11233 19.3528 9.29144 19.2056 9.29144C19.0585 9.29144 18.7761 9.47056 18.5782 9.68947C18.0586 10.264 17.4027 10.1848 16.8061 9.47513C15.9087 8.40801 16.2944 6.8324 17.6051 6.20988C18.7532 5.66478 19.9095 5.96808 20.9647 7.09112C21.4803 7.64001 21.5599 7.87266 21.5507 8.80505C21.5309 10.8684 19.8271 12.3911 17.2804 12.6222L16.044 12.7344L16.3948 12.1989C16.678 11.7662 16.7026 11.5694 16.5225 11.1739C16.218 10.5052 15.8934 10.5584 15.8934 11.277C15.8934 11.6856 15.7427 11.9682 15.408 12.1879C14.9561 12.4841 14.8249 12.4747 13.5187 12.0538C12.7465 11.8048 12.1149 11.5473 12.1149 11.4812C12.1149 11.4153 12.6741 11.2438 13.3578 11.1001C14.482 10.8639 14.5532 10.8203 14.1036 10.6446C13.8301 10.5375 12.9352 10.4326 12.1149 10.4111C11.2945 10.3898 10.506 10.2997 10.3626 10.2107C10.1538 10.0811 10.1257 10.2997 10.2218 11.3122C10.4414 13.63 10.547 14.2668 10.7118 14.2668C10.9137 14.2668 11.1141 13.5546 11.1177 12.824C11.1221 11.9505 11.456 12.1869 11.9017 13.3788C12.5874 15.2126 12.3993 15.859 11.1802 15.859C10.4887 15.859 10.3674 16.0208 10.7625 16.4162C11.062 16.7159 11.814 16.7237 12.3573 16.4327C12.7602 16.217 12.7688 16.2417 12.6474 17.2664C12.4822 18.6633 11.6551 20.3115 10.7874 20.9741C10.2689 21.3697 9.79323 21.5295 8.95359 21.5904C7.94631 21.6633 7.74843 21.6121 7.17607 21.1301C5.78795 19.9613 5.53299 18.3381 6.5548 17.1735C7.29261 16.3324 8.0527 16.1332 9.0047 16.531C9.91753 16.9128 10.1331 17.6348 9.61922 18.5897C9.41776 18.964 9.03394 19.3851 8.76626 19.5254C8.14399 19.8518 8.51468 20.1181 9.33901 19.937C10.4606 19.6904 10.9359 17.7697 10.0979 16.8696C8.8814 15.5628 6.87657 15.7774 5.93989 17.3146C5.09488 18.7015 5.7794 20.7959 7.33438 21.5807C8.34703 22.0917 8.91143 22.1252 9.99588 21.7381ZM15.7592 21.0384C16.3133 20.3796 16.7538 19.2287 16.6527 18.7041C16.5861 18.3578 15.2787 20.3488 15.0041 21.2147C14.8148 21.8121 15.1807 21.7265 15.7592 21.0384ZM2.15833 20.8586C2.46121 20.2922 2.42522 19.8866 2.11041 20.3175C1.86957 20.6473 1.79758 20.6507 1.11604 20.3659C-0.110598 19.8528 0.282972 18.7646 1.69516 18.7646C2.24286 18.7646 2.5702 18.9564 3.37662 19.7497L4.37814 20.7349L3.95236 19.7688C3.58385 18.933 3.55581 18.6868 3.74374 17.9395C4.01023 16.8805 4.0152 16.655 3.77158 16.655C3.49774 16.655 3.15627 18.0408 3.29429 18.5913L3.41162 19.0593L2.71418 18.7264C1.64882 18.2181 0.655457 18.4738 0.230467 19.3658C-0.0688343 19.9939 -0.0724144 20.1195 0.195267 20.5989C0.589035 21.3042 1.83198 21.4686 2.15833 20.8586ZM18.8632 20.1537C19.0545 19.9231 19.2072 19.9079 19.5885 20.0817C20.193 20.3573 20.3685 20.1987 20.0721 19.6446C19.8965 19.3163 19.9013 19.1469 20.0928 18.9158C20.2949 18.6721 20.2881 18.5805 20.057 18.434C19.8999 18.3345 19.6119 18.2519 19.417 18.2501C19.2222 18.2485 18.7419 18.113 18.3499 17.9492C17.6459 17.6547 17.6389 17.6567 17.7785 18.0985C17.8563 18.3445 18.0265 18.922 18.1566 19.3819C18.4473 20.4097 18.5543 20.5263 18.8632 20.1537ZM14.904 18.7318C15.3939 17.4423 14.7807 15.1087 13.705 14.1673L13.2502 13.7693L13.4553 14.1673C13.568 14.3862 13.7621 15.3714 13.8866 16.3565C14.1879 18.7401 14.2985 19.2422 14.522 19.2422C14.6254 19.2422 14.7973 19.0126 14.904 18.7318ZM16.8878 16.662C16.8878 16.3284 16.3723 15.859 16.006 15.859C15.7407 15.859 15.9223 16.8226 16.208 16.9323C16.7319 17.1335 16.8878 17.0716 16.8878 16.662ZM19.9466 16.4492C20.6168 16.2482 21.4619 15.5087 21.4619 15.1226C21.4619 14.8151 20.9273 15.0518 19.3286 16.0663C18.5524 16.5589 18.4804 16.6522 18.8873 16.6379C19.1547 16.6286 19.6314 16.5436 19.9466 16.4492ZM18.3141 15.0774C19.2582 14.7739 19.3669 14.629 18.8562 14.3554C18.5967 14.2165 18.3121 14.1474 18.224 14.202C18.1357 14.2565 17.9557 14.2149 17.8237 14.1096C17.6918 14.0043 16.9127 13.8688 16.0923 13.8083C15.272 13.748 14.377 13.6387 14.1036 13.5657C13.8192 13.4899 14.1374 13.7922 14.847 14.2722C16.1514 15.1544 17.268 15.4138 18.3141 15.0774ZM21.1763 4.73458C21.1035 4.61676 20.6459 4.24619 20.1592 3.91125C18.7377 2.93229 18.2644 1.54535 19.0754 0.733763C19.6491 0.159601 19.9431 0.23901 20.3195 1.0701C20.5667 1.616 20.5958 1.87273 20.4321 2.07015C20.311 2.21603 20.2621 2.38559 20.3231 2.44669C20.5089 2.63257 21.263 1.75491 21.263 1.3529C21.263 0.828892 20.6654 0.176916 20.0524 0.0322323C19.633 -0.066679 19.4216 0.0431786 18.9089 0.627687C18.1988 1.43708 18.1614 1.6568 18.5681 2.63078L18.8562 3.32097H18.1832C17.8131 3.32097 17.2615 3.4157 16.9572 3.53133C16.1565 3.83602 16.7382 4.12638 17.6465 3.87543C18.6035 3.61094 19.5668 3.79542 20.5182 4.42551C20.9529 4.71348 21.2491 4.85239 21.1763 4.73458Z" fill="url(#paint0_linear_1_2382)" style=""></path><defs><linearGradient id="paint0_linear_1_2382" x1="22" y1="11" x2="0" y2="11" gradientUnits="userSpaceOnUse"><stop stop-color="#FF1300" style="stop-color:#FF1300;stop-color:color(display-p3 1.0000 0.0763 0.0000);stop-opacity:1;"></stop><stop offset="1" stop-color="#992016" style="stop-color:#992016;stop-color:color(display-p3 0.6000 0.1255 0.0863);stop-opacity:1;"></stop></linearGradient></defs></svg>